<?xml version="1.0" encoding="utf-8"?>
<!-- Generator: Adobe Illustrator 18.1.0, SVG Export Plug-In . SVG Version: 6.00 Build 0)  -->
<!DOCTYPE svg PUBLIC "-//W3C//DTD SVG 1.1//EN" "http://www.w3.org/Graphics/SVG/1.1/DTD/svg11.dtd">
<svg version="1.1" id="Capa_1" xmlns="http://www.w3.org/2000/svg" xmlns:xlink="http://www.w3.org/1999/xlink" x="0px" y="0px"
	 viewBox="0 0 768 1024" enable-background="new 0 0 768 1024" xml:space="preserve">
<g>
	<path fill="#FFFFFF" d="M713.9,708.4c-17.5-80,0-214.9,0-214.9c19.6-115.2-46.9-181.6-105.4-216.8c-17.5-11.7-19.6-27.3-7.9-46.9
		c5.8-11.7,9.8-23.5,9.8-37.1c0-42.9-35.2-78.1-78.1-78.1c-42.9,0-78.1,35.2-78.1,78.1c0,7.9,1.9,15.6,3.9,23.5
		c3.9,13.7-5.8,21.5-27.3,25.4c-46.9,7.9-97.7,31.2-138.7,84C212,435,233.4,456.4,129.9,540.4c-17.5,13.7-41,23.5-54.7,23.5
		c-9.8,0-17.5,1.9-21.5,7.9c0,0-27.3,27.3-39.1,58.6c-7.9,19.6-3.9,35.2-1.9,35.2s3.9-1.9,5.8-1.9c7.9-1.9,17.5-1.9,29.3-1.9
		c132.8,0,541,93.7,658.2,162.1c19.6,11.7,37.1,9.8,41-9.8c3.9-19.6,3.9-45-3.9-54.7C735.4,751.4,719.7,729.9,713.9,708.4z
		 M532.3,218.2c-13.7,0-23.5-9.8-23.5-23.5s9.8-23.5,23.5-23.5s23.5,9.8,23.5,23.5C555.7,206.5,545.9,218.2,532.3,218.2z
		 M590.8,616.6c-1.9-5.8-3.9-11.7-3.9-19.6c-3.9-21.5,0-56.6,3.9-78.1c5.8-39.1,13.7-101.6,3.9-152.3c-3.9-21.5,1.9-25.4,9.8-3.9
		c13.7,33.2,27.3,101.6,17.5,230.5C620.2,612.7,596.7,636.2,590.8,616.6z"/>
	<path fill="#FFFFFF" d="M22.5,708.4c-3.9,0-3.9,1.9-3.9,1.9c0,13.7,82,58.6,146.4,82c42.9,15.6,82,29.3,119.1,42.9
		c21.5,5.8,31.2,17.5,25.4,25.4c-7.9,7.9-21.5,29.3-15.6,50.8c1.9,5.8,5.8,11.7,9.8,17.5c13.7,17.5,48.8,27.3,70.4,21.5
		c5.8-1.9,11.7-3.9,17.5-7.9c17.5-13.7,15.6-41,13.7-52.7s13.7-15.6,35.2-11.7c107.4,25.4,177.7,29.3,212.9,29.3
		c50.8,0,76.2-7.9,80-15.6c1.9-1.9,0-1.9,0-3.9C715.9,831.4,212,704.4,51.9,704.4C36.2,706.5,28.3,708.4,22.5,708.4z"/>
</g>
</svg>
