<?xml version="1.0" encoding="utf-8"?>
<!-- Generator: Adobe Illustrator 18.1.0, SVG Export Plug-In . SVG Version: 6.00 Build 0)  -->
<!DOCTYPE svg PUBLIC "-//W3C//DTD SVG 1.1//EN" "http://www.w3.org/Graphics/SVG/1.1/DTD/svg11.dtd">
<svg version="1.1" id="Layer_1" xmlns="http://www.w3.org/2000/svg" xmlns:xlink="http://www.w3.org/1999/xlink" x="0px" y="0px"
	 viewBox="-862 196.5 1078 828.8" enable-background="new -862 196.5 1078 828.8" xml:space="preserve">
<g>
	<path fill="#FFFFFF" d="M148.4,336.3v-64l-9.2-3.6c-3.2-1.3-78.4-30.4-178.7-30.4c-107.4,0-199.9,32.7-275.2,97.3
		C-390,271-482.6,238.3-590,238.3c-100.3,0-175.5,29.2-178.6,30.4l-9.3,3.6v59.3c-30.3,5.7-49.3,15.8-49.3,32.4
		c0,86.4,0,610.7,0,610.7h449.8c15.6,13.9,38.3,22.7,63.8,22.7c25.5,0,48.2-8.8,63.8-22.7h438.4c0,0,0-580.4,0-610.7
		C188.6,350.6,173.2,341.8,148.4,336.3z M-319.6,926.6c-37.3-15.4-165.9-64.3-294.7-64.3c-50.9,0-96,7.8-134.4,23.2V292.6
		c22.4-7.5,83.5-25.1,158.7-25.1c98.9,0,183.9,29.9,253.3,88.2v353.9l17.1-18.9C-319.6,690.7-319.6,926.6-319.6,926.6z M119.2,885.6
		C78,869.1,30.6,860.7-21.8,860.7c-128.7,0-251.2,49.3-288.1,65.6V690.7l17.2,18.9V355.6c69.4-58.3,154.4-88.2,253.3-88.2
		c75,0,136.3,17.7,158.7,25.1V885.6z"/>
	<path fill="#FFFFFF" d="M-691,370.6l6,22.8c151.9-40.3,288.5,34.3,289.9,35l11.5-20.6C-389.4,404.5-529.8,327.8-691,370.6z"/>
	<path fill="#FFFFFF" d="M-691,437.4l6,22.8c151.9-40.3,288.5,34.2,289.9,35l11.5-20.6C-389.4,471.3-529.8,394.6-691,437.4z"/>
	<path fill="#FFFFFF" d="M-691,500.2l6,22.8c151.9-40.3,288.5,34.3,289.9,35l11.5-20.6C-389.4,534.1-529.8,457.4-691,500.2z"/>
	<path fill="#FFFFFF" d="M-691,569l6,22.8c151.9-40.3,288.5,34.3,289.9,35l11.5-20.6C-389.4,602.9-529.8,526.2-691,569z"/>
	<path fill="#FFFFFF" d="M-691,632.7l6,22.8c151.9-40.3,288.5,34.3,289.9,35.1l11.5-20.7C-389.4,666.7-529.8,590-691,632.7z"/>
	<path fill="#FFFFFF" d="M-691,698.2l6,22.8c151.9-40.3,288.5,34.2,289.9,35l11.5-20.6C-389.4,732.1-529.8,655.5-691,698.2z"/>
	<path fill="#FFFFFF" d="M-691,763.9l6,22.8c151.9-40.3,288.5,34.3,289.9,35l11.5-20.6C-389.4,797.8-529.8,721.1-691,763.9z"/>
	<path fill="#FFFFFF" d="M-227.4,430.1c1.4-0.7,138-75.3,289.9-35l6-22.8c-161.3-42.7-301.5,34-307.4,37.3L-227.4,430.1z"/>
	<path fill="#FFFFFF" d="M-238.9,476.4l11.5,20.6c1.4-0.7,138-75.3,289.9-35l6-22.9C-92.8,396.4-233,473-238.9,476.4z"/>
	<path fill="#FFFFFF" d="M-238.9,539.1l11.5,20.6c1.4-0.8,138-75.3,289.9-35.1l6-22.8C-92.8,459.2-233,535.9-238.9,539.1z"/>
	<path fill="#FFFFFF" d="M-238.9,608l11.5,20.6c1.4-0.7,138-75.3,289.9-35l6-22.8C-92.8,527.9-233,604.6-238.9,608z"/>
	<path fill="#FFFFFF" d="M-238.9,671.7l11.5,20.6c1.4-0.7,138-75.3,289.9-35l6-22.9C-92.8,591.8-233,668.4-238.9,671.7z"/>
	<path fill="#FFFFFF" d="M-238.9,737.2l11.5,20.6c1.4-0.7,138-75.3,289.9-35l6-22.8C-92.8,657.3-233,733.9-238.9,737.2z"/>
	<path fill="#FFFFFF" d="M-238.9,802.9l11.5,20.6c1.4-0.7,138-75.3,289.9-35l6-22.8C-92.8,722.9-233,799.6-238.9,802.9z"/>
</g>
</svg>
