<?xml version="1.0" encoding="utf-8"?>
<!-- Generator: Adobe Illustrator 18.1.0, SVG Export Plug-In . SVG Version: 6.00 Build 0)  -->
<!DOCTYPE svg PUBLIC "-//W3C//DTD SVG 1.1//EN" "http://www.w3.org/Graphics/SVG/1.1/DTD/svg11.dtd">
<svg version="1.1" id="Layer_1" xmlns="http://www.w3.org/2000/svg" xmlns:xlink="http://www.w3.org/1999/xlink" x="0px" y="0px"
	 viewBox="-127 257 512 512" enable-background="new -127 257 512 512" xml:space="preserve">
<g id="Guides_For_Artboard">
</g>
<g id="_x30_">
</g>
<g id="_x31_">
</g>
<g id="_x32_">
</g>
<g id="_x33_">
</g>
<g id="_x34_">
</g>
<g id="_x35_">
</g>
<g id="_x36_">
</g>
<g id="_x37_">
</g>
<g id="_x38_">
</g>
<g id="_x39_">
</g>
<g id="_x31_0">
</g>
<g id="_x31_1">
</g>
<g id="_x31_2">
</g>
<g id="_x31_3">
</g>
<g id="_x31_4">
</g>
<g id="_x31_5">
	<g>
		<path fill="#FFFFFF" d="M5,385.6H12c10.5,0,19.1-8.5,19.1-19.1v-52.7v-19.7c0-10.5-8.5-19.1-19.1-19.1H5
			c-10.5,0-19.1,8.5-19.1,19.1v19.7v52.7C-14.1,377.1-5.5,385.6,5,385.6z"/>
		<path fill="#FFFFFF" d="M249.9,385.1h6.9c10.5,0,19.1-8.5,19.1-19.1v-57.2v-15.2c0-10.5-8.5-19.1-19.1-19.1h-6.9
			c-10.5,0-19.1,8.5-19.1,19.1v15.2v57.2C230.8,376.6,239.4,385.1,249.9,385.1z"/>
		<path fill="#FFFFFF" d="M340.4,313.8h-49v57.2c0,19.1-15.5,29.6-34.6,29.6h-6.9c-19.1,0-34.6-15.5-34.6-34.6v-52.2H46.6v52.7
			c0,19.1-15.5,34.6-34.6,34.6H5c-19.1,0-34.6-15.5-34.6-34.6v-52.7h-52.9c-17.1,0-31,13.9-31,31v375c0,17.1,13.9,31,31,31h422.9
			c17.1,0,31-13.9,31-31v-375C371.5,327.8,357.6,313.8,340.4,313.8z M340.4,719.9H-82.4l0-283.2h422.9L340.4,719.9
			C340.5,719.9,340.5,719.9,340.4,719.9z"/>
		<path fill="#FFFFFF" d="M145,531.7h55.7c2.2,0,4-1.8,4-4v-48.3c0-2.2-1.8-4-4-4H145c-2.2,0-4,1.8-4,4v48.3
			C141,529.9,142.8,531.7,145,531.7z"/>
		<path fill="#FFFFFF" d="M236,531.7h55.7c2.2,0,4-1.8,4-4v-48.3c0-2.2-1.8-4-4-4H236c-2.2,0-4,1.8-4,4v48.3
			C232,529.9,233.8,531.7,236,531.7z"/>
		<path fill="#FFFFFF" d="M-36.9,610.7h55.7c2.2,0,4-1.8,4-4v-48.3c0-2.2-1.8-4-4-4h-55.7c-2.2,0-4,1.8-4,4v48.3
			C-40.9,608.9-39.1,610.7-36.9,610.7z"/>
		<path fill="#FFFFFF" d="M54.1,610.7h55.7c2.2,0,4-1.8,4-4v-48.3c0-2.2-1.8-4-4-4H54.1c-2.2,0-4,1.8-4,4v48.3
			C50.1,608.9,51.9,610.7,54.1,610.7z"/>
		<path fill="#FFFFFF" d="M145,610.7h55.7c2.2,0,4-1.8,4-4v-48.3c0-2.2-1.8-4-4-4H145c-2.2,0-4,1.8-4,4v48.3
			C141,608.9,142.8,610.7,145,610.7z"/>
		<path fill="#FFFFFF" d="M236,610.7h55.7c2.2,0,4-1.8,4-4v-48.3c0-2.2-1.8-4-4-4H236c-2.2,0-4,1.8-4,4v48.3
			C232,608.9,233.8,610.7,236,610.7z"/>
		<path fill="#FFFFFF" d="M18.9,633.4h-55.7c-2.2,0-4,1.8-4,4v48.3c0,2.2,1.8,4,4,4h55.7c2.2,0,4-1.8,4-4v-48.3
			C22.9,635.2,21.1,633.4,18.9,633.4z"/>
		<path fill="#FFFFFF" d="M109.8,633.4H54.1c-2.2,0-4,1.8-4,4v48.3c0,2.2,1.8,4,4,4h55.7c2.2,0,4-1.8,4-4v-48.3
			C113.8,635.2,112,633.4,109.8,633.4z"/>
		<path fill="#FFFFFF" d="M200.8,633.4H145c-2.2,0-4,1.8-4,4v48.3c0,2.2,1.8,4,4,4h55.7c2.2,0,4-1.8,4-4v-48.3
			C204.8,635.2,203,633.4,200.8,633.4z"/>
		<path fill="#FFFFFF" d="M291.7,633.4H236c-2.2,0-4,1.8-4,4v48.3c0,2.2,1.8,4,4,4h55.7c2.2,0,4-1.8,4-4v-48.3
			C295.7,635.2,293.9,633.4,291.7,633.4z"/>
	</g>
</g>
<g id="_x31_6">
</g>
<g id="_x31_7">
</g>
<g id="_x31_8">
</g>
<g id="_x31_9">
</g>
<g id="_x32_0">
</g>
<g id="_x32_1">
</g>
<g id="_x32_2">
</g>
<g id="_x32_3">
</g>
<g id="_x32_4">
</g>
<g id="_x32_5">
</g>
<g id="_x32_6">
</g>
<g id="_x32_7">
</g>
<g id="_x32_8">
</g>
<g id="_x32_9">
</g>
<g id="_x33_0">
</g>
<g id="_x33_1">
</g>
<g id="_x33_2">
</g>
<g id="_x33_3">
</g>
<g id="_x33_4">
</g>
<g id="_x33_5">
</g>
<g id="_x33_6">
</g>
<g id="_x33_7">
</g>
<g id="_x33_8">
</g>
<g id="_x33_9">
</g>
<g id="_x34_0">
</g>
<g id="_x34_1">
</g>
<g id="_x34_2">
</g>
<g id="_x34_3">
</g>
<g id="_x34_4">
</g>
<g id="_x34_5">
</g>
<g id="_x34_6">
</g>
<g id="_x34_7">
</g>
<g id="_x34_8">
</g>
<g id="_x34_9">
</g>
<g id="_x35_0">
</g>
<g id="_x35_1">
</g>
<g id="_x35_2">
</g>
<g id="_x35_3">
</g>
<g id="_x35_4">
</g>
<g id="_x35_5">
</g>
<g id="_x35_6">
</g>
<g id="_x35_7">
</g>
<g id="_x35_8">
</g>
<g id="_x35_9">
</g>
<g id="_x36_0">
</g>
<g id="_x36_1">
</g>
<g id="_x36_2">
</g>
<g id="_x36_3">
</g>
<g id="_x36_4">
</g>
<g id="_x36_5">
</g>
<g id="_x36_6">
</g>
<g id="_x36_7">
</g>
<g id="_x36_8">
</g>
<g id="_x36_9">
</g>
<g id="_x37_0">
</g>
</svg>
