<?xml version="1.0" encoding="utf-8"?>
<!-- Generator: Adobe Illustrator 18.1.0, SVG Export Plug-In . SVG Version: 6.00 Build 0)  -->
<!DOCTYPE svg PUBLIC "-//W3C//DTD SVG 1.1//EN" "http://www.w3.org/Graphics/SVG/1.1/DTD/svg11.dtd">
<svg version="1.1" id="Layer_1" xmlns="http://www.w3.org/2000/svg" xmlns:xlink="http://www.w3.org/1999/xlink" x="0px" y="0px"
	 viewBox="-367 497 32 32" enable-background="new -367 497 32 32" xml:space="preserve">
<path fill="#FFFFFF" d="M-344.7,513.4c-0.7-0.9-1.6-1.6-2.5-2.1c-0.5-0.2-1-0.4-1.6-0.6c-0.2,0-0.4-0.1-0.6-0.1l-0.1-2.7
	c0-0.1,0-0.1,0-0.2c0.1-0.1,0.2-0.1,0.2-0.2c0.8-0.5,1.6-1.1,2.4-1.7c0.8-0.7,1.5-1.4,2.1-2.5c0.6-1.1,0.8-2.3,0.4-3.7
	c-0.3-1.3-1.6-2.5-3.2-2.6c-0.8,0-1.5,0.3-2.1,0.7c-0.3,0.2-0.5,0.5-0.7,0.7c-0.1,0.2-0.3,0.3-0.4,0.6c-0.6,1-0.9,2.1-1.1,3.1
	c-0.1,1-0.1,2-0.1,2.9l0,0.5c-1.2,0.7-2.5,1.4-3.7,2.3c-0.8,0.6-1.6,1.2-2.3,2c-0.7,0.8-1.4,1.7-1.8,2.9c-0.4,1.1-0.5,2.3-0.2,3.5
	c0.2,1,0.6,2.1,1.2,3.1c1.2,1.9,3.3,3.2,5.3,3.6c0.7,0.1,1.4,0.2,2.1,0.3l0,1.2c0,0,0,0.1,0,0.1c0,0.1,0,0.3,0,0.4
	c0,0.2,0,0.3,0,0.5c0,0.3-0.1,0.6-0.2,0.8c-0.1,0.2-0.2,0.3-0.3,0.4c-0.1,0-0.1,0.1-0.2,0.1c-0.1,0-0.1,0-0.2,0c0,0-0.1,0-0.1,0
	l-0.1,0l-0.1,0l-0.1,0c0,0-0.1,0-0.2,0c-0.1,0-0.2-0.1-0.4-0.1c-0.2-0.1-0.4-0.3-0.5-0.4c-0.1-0.2-0.1-0.3-0.1-0.5
	c0-0.1,0-0.2,0.1-0.3c0-0.1,0.1-0.2,0.1-0.3l0.1-0.2c0.2-0.5,0-1.1-0.5-1.4c-0.5-0.3-1.2,0-1.4,0.5c-0.1,0.2-0.2,0.5-0.3,0.8
	c-0.1,0.3-0.1,0.6-0.1,0.9c0,0.6,0.2,1.3,0.5,1.8c0.4,0.5,0.8,0.8,1.3,1.1c0.2,0.1,0.5,0.2,0.8,0.3c0.2,0.1,0.6,0.1,0.8,0.1l0.1,0
	c0.2,0,0.2,0,0.3,0c0.1,0,0.3,0,0.4,0c0.3-0.1,0.6-0.1,0.9-0.3c0.6-0.3,1-0.8,1.2-1.3c0.2-0.5,0.3-1,0.4-1.5c0-0.2,0-0.5,0-0.7
	c0-0.2,0-0.4,0-0.7l0-1.3c0.7-0.1,1.4-0.4,2.1-0.7c0.5-0.3,1-0.6,1.4-1c0.4-0.4,0.9-1,1.1-1.4c0.5-0.9,0.9-2,0.9-3.2
	C-343.6,515.5-344,514.3-344.7,513.4z M-349.4,502.6c0.1-0.8,0.4-1.5,0.7-2.1c0.1-0.1,0.3-0.4,0.4-0.5c0.1-0.1,0.2-0.2,0.2-0.2
	c0.2-0.1,0.3-0.2,0.5-0.1c0.3,0,0.7,0.3,0.8,0.8c0.1,0.5,0,1.1-0.3,1.7c-0.5,0.8-1.4,1.6-2.5,2.3
	C-349.5,503.8-349.5,503.2-349.4,502.6z M-352.6,520.2c-1.5-0.4-2.8-1.2-3.5-2.4c-0.4-0.6-0.6-1.3-0.8-2c-0.1-0.7-0.1-1.3,0.1-2
	c0.4-1.2,1.6-2.4,3-3.4c0.7-0.5,1.4-0.9,2.2-1.4l0.1,1.9c-0.7,0.2-1.4,0.5-2,0.9c-0.5,0.3-0.9,0.7-1.2,1.3c-0.2,0.3-0.3,0.5-0.4,0.9
	c0,0.1-0.1,0.2-0.1,0.3l0,0.2l0,0.3l0,0.2c0,0.7,0.2,1.4,0.6,1.9c0.4,0.5,0.9,0.9,1.5,1.2c0,0,0.1,0,0.1,0c0.6,0.2,1.2-0.1,1.4-0.7
	c0.2-0.6-0.1-1.2-0.7-1.4l0,0c-1.2-0.4-1.1-1.7,0.2-2.5c0.3-0.2,0.5-0.3,0.8-0.4l0,0.3l0.2,7C-351.8,520.4-352.2,520.3-352.6,520.2z
	 M-346.1,516.7c0,0.7-0.3,1.3-0.6,2c-0.2,0.3-0.3,0.5-0.6,0.7c-0.2,0.2-0.5,0.4-0.9,0.5c-0.3,0.1-0.7,0.3-1,0.3l-0.2-6.8l0-0.5
	c0,0,0.1,0,0.1,0c0.3,0.1,0.7,0.2,1,0.4C-347,514.1-346,515.4-346.1,516.7z"/>
</svg>
