<?xml version="1.0" encoding="utf-8"?>
<!-- Generator: Adobe Illustrator 18.1.0, SVG Export Plug-In . SVG Version: 6.00 Build 0)  -->
<!DOCTYPE svg PUBLIC "-//W3C//DTD SVG 1.1//EN" "http://www.w3.org/Graphics/SVG/1.1/DTD/svg11.dtd">
<svg version="1.1" id="Capa_1" xmlns="http://www.w3.org/2000/svg" xmlns:xlink="http://www.w3.org/1999/xlink" x="0px" y="0px"
	 viewBox="0 0 768 1024" enable-background="new 0 0 768 1024" xml:space="preserve">
<path fill="#FFFFFF" d="M-263.8,1335.9c0,0,0,17.1,17.1,17.1c19.9,0,193.4,0,193.4,0v-159.3c0,0-2.8-25.6,22.8-25.6h79.6
	c31.3,0,28.4,25.6,28.4,25.6V1353c0,0,165,0,190.6,0c19.9,0,19.9-22.8,19.9-22.8v-293L20.7,798.3l-284.4,238.9V1335.9z"/>
<path fill="#FFFFFF" d="M-369,1017.4c0,0,22.8,45.5,76.8,0L20.7,752.8l293,264.5c59.7,42.7,82.5,0,82.5,0L17.8,676L-369,1017.4z"/>
<polygon fill="#FFFFFF" points="308,750 234,750 234,841 308,906.4 "/>
</svg>
