<?xml version="1.0" encoding="utf-8"?>
<!-- Generator: Adobe Illustrator 18.1.0, SVG Export Plug-In . SVG Version: 6.00 Build 0)  -->
<!DOCTYPE svg PUBLIC "-//W3C//DTD SVG 1.1//EN" "http://www.w3.org/Graphics/SVG/1.1/DTD/svg11.dtd">
<svg version="1.1" id="Layer_1" xmlns="http://www.w3.org/2000/svg" xmlns:xlink="http://www.w3.org/1999/xlink" x="0px" y="0px"
	 viewBox="-127 257 512 512" enable-background="new -127 257 512 512" xml:space="preserve">
<path d="M178,769"/>
<line fill="none" x1="178" y1="769" x2="241" y2="769"/>
<path fill="#FFFFFF" d="M340.4,432.4c-37.8-6.8-73.7-24.6-102.2-53.1c-28.5-28.5-46.4-64.3-53.1-102.2c38.3-24,93.8-15.5,132.3,23
	C355.9,338.5,364.4,394.1,340.4,432.4z M313.9,458.8c-36.3-10.2-70.4-29-98.4-56.9c-27.9-28-46.8-62-56.9-98.4
	c-24,38.3-15.5,93.8,23,132.3C220.1,474.3,275.6,482.8,313.9,458.8z M161.8,629.1c-47.8,0-82,29.9-112.1,56.2
	C16.3,714.5-12.5,739.7-55,726.6c-8.4-6.2-8.7-11.2-8.8-13c-0.6-11.5,13.3-26.9,20.2-32.6c0.8-0.7,1.3-1.6,2-2.5
	c11.2,3.9,24.1,1.7,33.1-7.3l217.6-179.1c-18-7.6-35.2-18.7-50.1-33.7c-15-15-26-32.1-33.6-50.1L-53.7,626c-8,8-10.3,19-8.1,29.2
	c-0.7,0.4-1.4,0.6-2,1.1c-3.4,2.8-33.3,28.2-31.8,58.8c0.5,10.8,5.2,26.3,24.6,39.3l3.8,1.9c12.5,4.2,24.1,6,35,6
	c42.6,0,74.3-27.8,103-52.8c28.4-24.8,55.3-48.3,91.1-48.3c82.5,0,146.3,88.4,147,89.2c5.1,7.3,15.1,8.9,22.3,3.8
	c7.2-5.1,8.9-15.1,3.8-22.3C331.9,727.7,260.9,629.1,161.8,629.1z"/>
</svg>
