<?xml version="1.0" encoding="utf-8"?>
<!-- Generator: Adobe Illustrator 18.1.0, SVG Export Plug-In . SVG Version: 6.00 Build 0)  -->
<!DOCTYPE svg PUBLIC "-//W3C//DTD SVG 1.1//EN" "http://www.w3.org/Graphics/SVG/1.1/DTD/svg11.dtd">
<svg version="1.1" id="Capa_1" xmlns="http://www.w3.org/2000/svg" xmlns:xlink="http://www.w3.org/1999/xlink" x="0px" y="0px"
	 viewBox="-351 481 64 64" enable-background="new -351 481 64 64" xml:space="preserve">
<g>
	<path fill="#FFFFFF" d="M-337.8,525.5l6.9-1.7l-4.3-17.5l-6.9,1.7c-2.1,0.5-3.4,2.6-2.9,4.7l2.5,9.9
		C-342,524.7-339.9,526-337.8,525.5z"/>
	<path fill="#FFFFFF" d="M-316,493.8c-0.5-2.1-2.2-2.6-3.7-1l-12.9,12.9l4.3,17.5l17.7,5.9c2.1,0.7,3.3-0.5,2.8-2.6L-316,493.8z"/>
	<path fill="#FFFFFF" d="M-306.9,511.4l13.6-3.4c1.3-0.3,2.2-1.7,1.8-3c-0.3-1.3-1.7-2.2-3-1.8l-13.6,3.4c-1.3,0.3-2.2,1.7-1.8,3
		c0.3,1.1,1.3,1.9,2.4,1.9C-307.3,511.5-307.1,511.5-306.9,511.4z"/>
	<path fill="#FFFFFF" d="M-309.3,503.3c0.7,0,1.3-0.3,1.8-0.8l9.2-9.9c0.9-1,0.9-2.6-0.1-3.5c-1-0.9-2.6-0.9-3.5,0.1l-9.2,9.9
		c-0.9,1-0.9,2.6,0.1,3.5C-310.5,503.1-309.9,503.3-309.3,503.3z"/>
	<path fill="#FFFFFF" d="M-291.7,518.9l-12.8-4.4c-1.3-0.5-2.7,0.2-3.2,1.5c-0.5,1.3,0.2,2.7,1.5,3.2l12.8,4.4
		c0.3,0.1,0.5,0.1,0.8,0.1c1,0,2-0.6,2.4-1.7C-289.7,520.8-290.4,519.3-291.7,518.9z"/>
</g>
</svg>
