<?xml version="1.0" encoding="utf-8"?>
<!-- Generator: Adobe Illustrator 18.1.0, SVG Export Plug-In . SVG Version: 6.00 Build 0)  -->
<!DOCTYPE svg PUBLIC "-//W3C//DTD SVG 1.1//EN" "http://www.w3.org/Graphics/SVG/1.1/DTD/svg11.dtd">
<svg version="1.1" id="Capa_1" xmlns="http://www.w3.org/2000/svg" xmlns:xlink="http://www.w3.org/1999/xlink" x="0px" y="0px"
	 viewBox="-376 505 14 16" enable-background="new -376 505 14 16" xml:space="preserve">
<path fill="#FFFFFF" d="M-372,507v4v6.2c-0.7-0.3-1.6-0.3-2.6,0.2c-1.4,0.7-1.7,2-1.2,2.8c0.5,0.8,2,1.2,3.3,0.5
	c1-0.5,1.5-1.3,1.4-2v-7.8l8-1.6v7c-0.7-0.3-1.6-0.3-2.6,0.2c-1.4,0.7-1.7,2-1.2,2.8c0.5,0.8,2,1.2,3.3,0.5c1-0.5,1.5-1.3,1.4-2V509
	v-3v-1L-372,507z"/>
</svg>
