<?xml version="1.0" encoding="utf-8"?>
<!-- Generator: Adobe Illustrator 18.1.0, SVG Export Plug-In . SVG Version: 6.00 Build 0)  -->
<!DOCTYPE svg PUBLIC "-//W3C//DTD SVG 1.1//EN" "http://www.w3.org/Graphics/SVG/1.1/DTD/svg11.dtd">
<svg version="1.1" id="Capa_1" xmlns="http://www.w3.org/2000/svg" xmlns:xlink="http://www.w3.org/1999/xlink" x="0px" y="0px"
	 viewBox="0 0 768 1024" enable-background="new 0 0 768 1024" xml:space="preserve">
<g>
	<path fill="#FFFFFF" d="M707,395.8c0,0,0,0-38.4-21.6s-27.6-26.4-44.4-60c-16.8-34.8-70.8-34.8-70.8-34.8L98.6,376.6L581,459.4
		L707,395.8z"/>
	<path fill="#FFFFFF" d="M576.2,470.2l-477.6-84V475L29,502.6v60l117.6,16.8l27.6,146.4c1.2,8.4,4.8,8.4,6,0l25.2-138l72,10.8v108
		l-31.2-2.4v30l130.8,9.6v-30l-30-2.4V608.2l105.6,15.6l27.6,147.6c1.2,8.4,4.8,8.4,6,0l26.4-139.2l27.6,3.6l1.2-57.6l36-21.6
		C576.2,557.8,576.2,470.2,576.2,470.2z M326.6,710.2l-31.2-2.4V601l31.2,4.8V710.2z M507.8,595L67.4,532.6l68.4-27.6l9.6,1.2
		l-30,20.4l15.6,4.8l20.4-22.8l30,4.8l-27.6,19.2l15.6,4.8l19.2-21.6l28.8,4.8l-26.4,18l15.6,4.8l18-20.4l66,9.6l-22.8,15.6
		l15.6,4.8l15.6-18l27.6,3.6L306.2,553l15.6,4.8l14.4-16.8l63.6,9.6l-18,12l15.6,4.8l13.2-14.4l62.4,9.6l-14.4,9.6l15.6,4.8l10.8-12
		l49.2,7.2L507.8,595z"/>
	<polygon fill="#FFFFFF" points="585.8,566.2 548.6,587.8 548.6,638.2 707,530.2 707,409 585.8,471.4 	"/>
</g>
</svg>
