<?xml version="1.0" encoding="utf-8"?>
<!-- Generator: Adobe Illustrator 18.1.0, SVG Export Plug-In . SVG Version: 6.00 Build 0)  -->
<!DOCTYPE svg PUBLIC "-//W3C//DTD SVG 1.1//EN" "http://www.w3.org/Graphics/SVG/1.1/DTD/svg11.dtd">
<svg version="1.1" id="Layer_1" xmlns="http://www.w3.org/2000/svg" xmlns:xlink="http://www.w3.org/1999/xlink" x="0px" y="0px"
	 viewBox="-320 450 126 126" enable-background="new -320 450 126 126" xml:space="preserve">
<path fill="#FFFFFF" d="M-202.6,534.4c4.7-6.7,5.6-16.3-0.6-21.9c2.3-3.6,4.6-8.7,3.4-14c-1.3-6-7.7-8.3-11.4-9.1
	c-3.1-0.7-6.4-1-10.1-1c-6.3,0-12.8,1-18.5,2.1c-0.1-10.1-1.7-18.9-4.9-26c-2.5-5.6-9.8-13.7-16.6-13.7c-3,0-5.6,1.5-7.6,4.5
	c-2.2,3.3-2.6,7.7-3,11.6l-0.1,0.9c-0.3,2.8-0.4,5.7-0.6,8.5c-0.2,3-0.4,6-0.7,9c-0.5,4.8-1.5,11-4.6,16c-2.3,3.6-6.2,5.4-11.7,5.4
	c-0.2,0-0.4,0-0.7,0v-5h-25.2v70.7h25.2v-4.1c11.7,0.4,23.6,2,35.1,3.6c8.6,1.2,17.4,2.4,26.2,3.1l0.3,0c2,0.2,4.2,0.3,6.2,0.3
	c0,0,0,0,0,0c3.6,0,8.3-0.5,12.3-4c4.4-3.9,4.8-11.1,3.1-16.7C-202.1,549.7-198.7,541.9-202.6,534.4z M-306.5,516.9v-7.8h7.8v7.8
	H-306.5z M-213.8,551c-0.9,0.8-1.5,2.5-1,3.9c1.2,2.9,1.9,7.1,0.5,9.9c-0.7,1.4-1.8,2.2-3.4,2.6c-1.6,0.4-3.4,0.6-5.6,0.6
	c-3.4,0-6.9-0.5-10.4-1c-1.4-0.2-2.7-0.4-4-0.5c-5.3-0.6-10.8-1.3-16-2.1c-11.9-1.6-24.1-3.2-36.3-3.7v-46.4c0.3,0,0.6,0,0.9,0
	c21.6,0,23.3-23.3,24.5-40.4c0.2-2.4,0.3-4.7,0.5-6.9l0.1-0.8c0.2-2.4,0.6-6.5,2.4-7.7c0.4-0.3,0.8-0.4,1.3-0.4c3.1,0,7,5.5,8.3,8
	c3.6,6.9,5.2,16.6,4.7,28.8c0,1,0.3,1.9,1,2.6c0.9,1,2.4,1.4,3.8,1.1c7-1.3,14.2-2.7,21.3-2.7c2.7,0,5.1,0.2,7.4,0.6
	c4.3,0.7,6.6,2.1,6.8,4.2c0.3,2.3-0.9,4.7-2.1,6.8c-0.7,1.2-2,3-2.2,3.3c-0.8,1-1.2,2.4-0.9,3.7c0.2,1,0.9,1.9,1.8,2.3
	c2.2,1,3.5,2.6,3.9,4.8c0.6,3.1-0.8,7-3.5,9.8c-1.1,1.1-1.6,3.3-0.5,4.7C-205.9,542.3-210.6,548.1-213.8,551z"/>
</svg>
