<?xml version="1.0" encoding="utf-8"?>
<!-- Generator: Adobe Illustrator 18.1.0, SVG Export Plug-In . SVG Version: 6.00 Build 0)  -->
<!DOCTYPE svg PUBLIC "-//W3C//DTD SVG 1.1//EN" "http://www.w3.org/Graphics/SVG/1.1/DTD/svg11.dtd">
<svg version="1.1" id="Layer_1" xmlns="http://www.w3.org/2000/svg" xmlns:xlink="http://www.w3.org/1999/xlink" x="0px" y="0px"
	 viewBox="190.1 246 231.8 300" enable-background="new 190.1 246 231.8 300" xml:space="preserve">
<g id="Layer_1_1_">
	<g>
		<path fill="#FFFFFF" d="M366.8,317.4c-0.2-7.8-2.6-16.6-7.2-21.5c-3.5-3.4-7.3-3.9-10.8-1.4c-4.8,3.2-6.7,10.8-7.4,15.7
			c-1,6.7-0.8,11.7-0.8,19l-0.8-0.2c-3.9-13.8-7-24.7-8.9-37c-1.6-9.6-2.4-20.4,4.1-26.4c1.8-1.7,2.6-2.1,4.3-2.8
			c1.8-0.8,2.4-0.4,2.4-0.7c-0.1-0.6-1.7-0.9-3.3-0.6c-1.8,0.5-3.6,1.2-5.7,3.1c-7.4,6.9-7.5,18.8-7.6,22.7
			c-0.6,10,0.7,28.1,0.9,33.1c0.6,5,1.3,15,1.6,19c-0.1,1.9,0.1,3.3,1,3.3c1,0.1,1-1.2,0.9-3.2c-0.6-4.7-1.1-14.3-1.9-26.4l0.2,0.2
			c3.3,15.2,15.5,61.5,18.6,73.3c3.1,11.8,5.6,22.9,6.8,33.4c1,9,1.2,17.4-0.1,25.5c-2.2,14.4-8.3,27.7-18.5,39.8
			c-2.2-10.8-21.4-17.3-44.8-14.7c-24.8,2.7-44.8,14.7-44.8,26.6c0.1,12,20.2,19.5,45,16.7c14.7-1.6,27.9-6,36-12.1l0.3-0.3
			c0.7-0.6,1.6-1.2,2.3-1.8c14.7-13.6,23.9-32.7,27.2-54.1c1.1-7.5,1.7-15.4,1.7-23.3c0.1-15.9-1.9-32.3-5.5-47.8
			c-2-8.8-6.2-23.1-7.2-29.7c-2.4-12.4-2.2-16-2.1-26.9c0.3-8.5,1.9-15.2,4.6-17.7c2.2-2.1,5.3,1.2,6.5,3.2
			c1.9,2.6,3.8,8.4,4.1,11.2c-1,3.6-3.1,7.1-5.5,11.8c-2,4-4.1,9.9-1.1,12.9c2.7,2.7,5.8,1.1,7.6-0.6
			C363.9,334.4,367,326.3,366.8,317.4z M359.7,328.8c-0.4,4.7-3,7.9-5.1,7.1c-2.3-1.2-1.3-5.3,0.5-9c1.2-2.9,3.4-7.1,3.8-9.7
			l0.2,0.2C359.9,320.3,360.2,326,359.7,328.8z"/>
	</g>
</g>
<g id="type" display="none">
	<g display="inline">
		<g>
			<path fill="#FFFFFF" d="M206.9,695.7c-0.7,1-1.9,2-3.8,3c-2.4,1.3-5.1,1.9-7.9,1.9c-4.8,0-8.7-1.5-11.8-4.6c-3-3-4.6-7-4.6-11.7
				c0-5.1,1.6-9.2,4.9-12.6c3.2-3.4,7.3-5.2,12.1-5.2c2.7,0,6,0.5,9.7,1.6c0.1-0.9,0.4-2,0.7-3.2c0.1-0.3,0.3-0.4,0.5-0.4
				c0.3,0,0.4,0.2,0.4,0.5c-0.3,3.7-0.5,6.2-0.5,7c0,0.9,0,2.3,0.1,4.2s0.1,2.8,0.1,2.9c0,0.5-0.1,0.7-0.4,0.7
				c-0.2,0-0.4-0.2-0.5-0.6c-0.5-2-0.8-4.2-0.8-6.9c-3.5-2.7-7.2-4.1-10.9-4.1c-3.5,0-6.5,1.1-8.7,3.2c-2.4,2.3-3.6,5.5-3.6,9.4
				c0,4.9,1.4,9.1,4.3,12.6c3,3.6,6.8,5.5,11.1,5.5c1.8,0,3.4-0.3,5-1c1-0.4,1.9-1.1,2.8-1.9c0.8-0.7,1.2-1,1.3-1
				c0.3,0,0.4,0.1,0.4,0.4C207.1,695.3,207.1,695.5,206.9,695.7z"/>
			<path fill="#FFFFFF" d="M241.8,698.7c2.1,0.1,3.5,0.3,4.5,0.6c0.2,0.1,0.4,0.2,0.4,0.4c0,0.3-0.2,0.5-0.5,0.5
				c0.2,0-0.5,0-1.9-0.1s-2.9-0.1-4.3-0.1c-1.4,0-2.8,0.1-4.3,0.1c-1.4,0.1-2.1,0.1-1.9,0.1c-0.3,0-0.5-0.2-0.5-0.5
				c0-0.2,0.1-0.3,0.4-0.4c0.9-0.3,2.4-0.5,4.5-0.6c0.1-2.3,0.2-7.1,0.2-14.5h-17.8c0,7.3,0.1,12.1,0.2,14.5
				c2.1,0.1,3.5,0.3,4.5,0.6c0.2,0.1,0.4,0.2,0.4,0.4c0,0.3-0.2,0.5-0.5,0.5c0.2,0-0.5,0-1.9-0.1s-2.9-0.1-4.2-0.1
				c-1.4,0-2.8,0.1-4.3,0.1c-1.4,0.1-2.1,0.1-1.9,0.1c-0.3,0-0.5-0.2-0.5-0.5c0-0.2,0.1-0.3,0.4-0.4c0.9-0.3,2.4-0.5,4.4-0.6
				c0.1-2.3,0.2-7.3,0.2-15c0-7.7-0.1-12.6-0.2-15c-2.1-0.1-3.5-0.3-4.4-0.6c-0.2-0.1-0.4-0.2-0.4-0.4c0-0.3,0.2-0.5,0.5-0.5
				c-0.2,0,0.5,0.1,1.9,0.2c1.4,0.1,2.9,0.2,4.3,0.2s2.8-0.1,4.2-0.2c1.5-0.1,2.1-0.2,1.9-0.2c0.4,0,0.5,0.2,0.5,0.5
				c0,0.2-0.1,0.3-0.4,0.4c-0.9,0.3-2.4,0.5-4.5,0.6c-0.2,2.3-0.2,7.1-0.2,14.3h17.7c0-7.3-0.1-12-0.2-14.3
				c-2.1-0.1-3.5-0.3-4.5-0.6c-0.2-0.1-0.4-0.2-0.4-0.4c0-0.3,0.2-0.5,0.5-0.5c-0.2,0,0.5,0.1,1.9,0.2c1.4,0.1,2.9,0.2,4.3,0.2
				c1.4,0,2.8-0.1,4.3-0.2c1.4-0.1,2.1-0.2,1.9-0.2c0.3,0,0.5,0.2,0.5,0.5c0,0.2-0.1,0.3-0.4,0.4c-0.9,0.3-2.4,0.5-4.5,0.6
				c-0.1,2.3-0.2,7.3-0.2,15C241.6,691.4,241.7,696.3,241.8,698.7z"/>
			<path fill="#FFFFFF" d="M259.4,688.5c0.4-1.1,2.4-5.9,6-14.3l6.2,14.3H259.4z M280.3,698.7l-7.8-17c-3.3-7.2-5.7-12.8-6.9-16.8
				c-1.6,0.8-2.9,1.4-3.9,1.7c0.7,1.3,1.7,3.4,3.1,6.4c-1.4,3.1-2.5,6-3.4,8.2c-3.6,8.8-6.3,14.7-8,17.6c-2,0.1-3.4,0.3-4.3,0.6
				c-0.2,0.1-0.4,0.2-0.4,0.4c0,0.3,0.2,0.5,0.5,0.5c-0.2,0,0.5,0,1.9-0.1c1.4-0.1,2.8-0.1,4.2-0.1c1.6,0,3.1,0.1,4.8,0.1
				c1.6,0.1,2.3,0.1,2.1,0.1c0.4,0,0.5-0.2,0.5-0.5c0-0.2-0.1-0.3-0.4-0.4c-1.3-0.3-3.3-0.5-6-0.6c0.9-3.3,1.9-6.3,2.9-8.9h12.9
				c1.2,2.8,2.4,5.8,3.5,8.9c-2.5,0.1-4.2,0.3-5.3,0.6c-0.2,0.1-0.4,0.2-0.4,0.4c0,0.3,0.2,0.5,0.5,0.5c-0.2,0,0.5,0,2.1-0.1
				c1.6-0.1,3.2-0.1,4.9-0.1c1.5,0,2.9,0.1,4.5,0.1c1.5,0.1,2.1,0.1,1.9,0.1c0.4,0,0.5-0.2,0.5-0.5c0-0.2-0.1-0.3-0.4-0.4
				C283.4,699,282.1,698.8,280.3,698.7z"/>
			<path fill="#FFFFFF" d="M325.2,699.1c0.7,0.1,1,0.3,1,0.6c0,0.3-0.2,0.4-0.5,0.4c0.1,0-0.6-0.1-2.1-0.1c-1.5-0.1-2.8-0.1-3.9-0.1
				c-1,0-2.4,0-4.2,0.1c-1.7,0.1-2.6,0.1-2.6,0.1c-0.3,0-0.5-0.1-0.5-0.4s0.3-0.5,1-0.6c1.1-0.1,2.6-0.3,4.5-0.5
				c0-2.2-0.3-6.6-0.8-12.9c-0.4-4.2-0.7-8.5-1.1-12.7c-0.1-0.6-0.1-1.5-0.2-2.7c-1.8,4.5-3.8,9.8-6.3,16.3l-2.4,6.7
				c-0.3,0.9-0.5,1.5-0.6,1.7c-0.3,0.8-0.6,1.2-0.8,1.2s-0.4-0.4-0.8-1.2c-2.5-5.1-6-11.7-10.3-20.1c-1.1,8.6-1.6,15.8-1.6,21.2
				c0,0.3,0,0.8,0,1.3c0,0.6,0,1,0,1.3c0.9,0.1,2.3,0.3,4.5,0.5c0.7,0.1,1,0.3,1,0.6c0,0.3-0.2,0.4-0.5,0.4c0.1,0-0.7-0.1-2.2-0.1
				c-1.5-0.1-2.9-0.1-4.1-0.1c-1,0-2.1,0-3.3,0.1c-1.2,0.1-1.7,0.1-1.7,0.1c-0.3,0-0.5-0.1-0.5-0.4s0.3-0.5,1-0.6
				c0.4-0.1,1-0.2,1.7-0.3s1.2-0.2,1.4-0.2c1.5-7.8,2.5-16.5,3.1-26c-0.6-1-1.1-2-1.6-2.8c-0.4-0.7-1-1.1-2-1.3
				c-0.8-0.1-1.3-0.3-1.3-0.6s0.2-0.5,0.7-0.5c0.2,0,0.6,0,1.2,0.1c0.6,0.1,1,0.1,1.1,0.1c0.4,0,1.6-0.1,3.5-0.3
				c0.6,1.7,2.3,5.6,5.4,11.5l6.1,12c0.5-1.1,1.6-3.8,3.3-8.3l5.7-15.2c1.1,0.2,1.9,0.3,2.3,0.3c0.6,0,1.6,0,2.8-0.1
				c1.3-0.1,2-0.1,2.1-0.1c0.4,0,0.5,0.1,0.5,0.4c0,0.3-0.3,0.5-1,0.6c-0.7,0.1-1.6,0.3-2.7,0.5c0,2.2,0.3,7,1,14.2
				c0.6,7.2,1.2,12.4,1.7,15.7C322.5,698.7,323.6,698.8,325.2,699.1z"/>
			<path fill="#FFFFFF" d="M337.5,683.4c0-7.5,0.1-12.3,0.2-14.7c1.1-0.3,2.7-0.5,5-0.5c2.6,0,4.9,0.6,6.7,1.9c2,1.4,3,3.4,3,6.1
				c0,3-1.6,5.1-4.8,6.2c-1.9,0.7-4.8,1-8.4,1H337.5z M337.7,698.5c-0.1-2.3-0.2-7-0.2-14.1h1.8c3.8,0,6.7,0.3,8.5,0.9
				c3.2,1,4.9,3.1,4.9,6.3c0,2.3-1,4.2-2.9,5.6c-1.7,1.2-3.9,1.8-6.6,1.8C341,699.1,339.2,699,337.7,698.5z M353,697.8
				c2.6-1.7,3.9-4,3.9-7c0-4.1-2.9-6.6-8.7-7.3c5.2-2.2,7.8-5.2,7.8-8.8c0-2.6-1.1-4.8-3.3-6.2c-1.9-1.2-4.2-1.8-7.1-1.8
				c-0.7,0-2.3,0.1-5,0.2c-2.5,0.2-4.1,0.2-4.9,0.2c-1.4,0-2.9-0.1-4.3-0.2c-1.5-0.1-2.1-0.2-2-0.2c-0.3,0-0.5,0.2-0.5,0.5
				c0,0.2,0.1,0.3,0.4,0.4c0.9,0.3,2.4,0.5,4.4,0.6c0.1,2.3,0.2,7.3,0.2,15s-0.1,12.6-0.2,15c-2.1,0.1-3.5,0.3-4.4,0.6
				c-0.2,0.1-0.4,0.2-0.4,0.4c0,0.3,0.2,0.5,0.5,0.5c0,0,0.7-0.1,2.1-0.1c1.4-0.1,2.8-0.1,4.2-0.1c0.4,0,1.7,0.1,4,0.2
				c2.2,0.1,3.8,0.2,4.7,0.2C347.8,700.3,350.7,699.5,353,697.8z"/>
			<path fill="#FFFFFF" d="M388.3,698.2c0,0.3,0,0.9,0.2,1.8c0.1,0.9,0.2,1.5,0.2,1.7c0,0.3-0.2,0.4-0.5,0.4s-0.6-0.5-1-1.6
				c-3.7-0.6-9.9-0.9-18.7-0.9c-1.4,0-2.8,0.1-4.3,0.1c-1.4,0.1-2.1,0.1-1.9,0.1c-0.3,0-0.5-0.2-0.5-0.5c0-0.2,0.1-0.3,0.4-0.4
				c0.9-0.3,2.4-0.5,4.5-0.6c0.1-2.3,0.2-7.3,0.2-15.1c0-7.6-0.1-12.5-0.2-14.9c-2.1-0.1-3.5-0.3-4.5-0.6c-0.2-0.1-0.4-0.2-0.4-0.4
				c0-0.3,0.2-0.5,0.5-0.5c-0.2,0,0.5,0.1,1.9,0.2c1.4,0.1,2.9,0.2,4.3,0.2c6.9,0,13-0.3,18.4-0.9c0.3-1.4,0.7-2.1,1.1-2.1
				c0.3,0,0.4,0.1,0.4,0.3c0,0.1,0,0.7-0.2,1.8c-0.1,1.1-0.1,1.9-0.1,2.4c0,0.4,0.1,1.3,0.1,2.6c0.1,1.3,0.2,2,0.2,2.1
				c0,0.5-0.2,0.7-0.6,0.7s-0.8-1.5-1.1-4.7c-3.5-0.9-7.7-1.3-12.5-1.3c-0.3,0-0.9,0-1.7,0c-0.8,0-1.4,0-1.8,0
				c-0.2,2.3-0.4,7-0.4,14.1h1c5.9,0,10.5-0.4,14-1.2c0.2-2.4,0.6-3.7,1.3-3.7c0.3,0,0.4,0.2,0.4,0.5c0,0.1-0.1,0.8-0.2,2.1
				s-0.2,2.3-0.2,2.8c0,0.7,0.1,1.7,0.2,3.1s0.2,2.1,0.2,2.1c0,0.4-0.1,0.6-0.4,0.6c-0.5,0-0.9-1.4-1.3-4.3c-3.1-0.5-7.8-0.8-14-0.8
				h-1c0,7.5,0.1,12.3,0.4,14.7c0.5,0,1.1,0.1,2.1,0.1c5.2,0,10-0.6,14.4-1.9c0.2-2.8,0.6-4.2,1.1-4.2c0.3,0,0.5,0.2,0.5,0.5
				s-0.1,1-0.2,2.3C388.4,696.7,388.3,697.6,388.3,698.2z"/>
			<path fill="#FFFFFF" d="M423.6,698.5c0,0.4-0.5,0.9-1.5,1.5c-1.1,0.6-2.2,0.9-3.3,0.9c-1.7,0-3.2-0.8-4.7-2.4
				c-2.3-3.1-5.7-7.3-10-12.7c-0.7-0.8-1-1.4-1-1.5c0-0.3,0.2-0.4,0.6-0.4h3.1c6.5,0,9.7-2.2,9.7-6.8c0-2.5-1-4.7-2.9-6.4
				c-1.9-1.6-4.2-2.4-7.1-2.4c-0.4,0-1.2,0.1-2.2,0.3c-1.1,0.2-1.8,0.3-2.1,0.3c-0.1,2.4-0.2,7.4-0.2,15c0,7.6,0.1,12.5,0.2,15
				c2.3,0.1,3.9,0.3,5,0.6c0.2,0.1,0.4,0.2,0.4,0.4c0,0.3-0.2,0.5-0.5,0.5c0.1,0-0.6-0.1-2.1-0.1c-1.6-0.1-3.1-0.1-4.7-0.1
				c-1.4,0-2.8,0-4.2,0.1c-1.4,0.1-2.1,0.1-1.9,0.1c-0.4,0-0.5-0.2-0.5-0.5c0-0.2,0.1-0.3,0.4-0.4c0.9-0.3,2.3-0.5,4.4-0.6
				c0.1-2.3,0.2-7.3,0.2-15s-0.1-12.6-0.2-15c-2.1-0.1-3.5-0.3-4.4-0.6c-0.3-0.1-0.4-0.2-0.4-0.4c0-0.3,0.2-0.5,0.5-0.5
				c-0.2,0,0.5,0.1,1.9,0.2c1.4,0.1,2.9,0.2,4.2,0.2c0.7,0,2.1-0.1,4.2-0.2c2.1-0.2,3.6-0.2,4.4-0.2c3,0,5.6,0.5,7.6,1.6
				c2.6,1.4,3.8,3.5,3.8,6.5c0,3.1-1.5,5.7-4.5,7.5c-2.4,1.5-5.2,2.2-8.1,2.2c0.7,0.9,2.5,3,5.3,6.4c1.7,2,3.4,4.1,5.3,6.2
				c0.9,1,1.9,1.5,2.9,1.5c0.5,0,0.9-0.1,1.4-0.3c0.4-0.2,0.7-0.3,0.8-0.3C423.4,698.2,423.6,698.3,423.6,698.5z"/>
		</g>
		<g>
			<path fill="#FFFFFF" d="M246.6,654.7c0,1-1.1,2.1-3.4,3.3c-2.4,1.3-5,2-7.6,2c-3.7,0-7.3-1.8-10.4-5.5
				c-5.3-7-12.8-16.4-22.6-28.5c-1.6-1.9-2.4-3-2.4-3.4c0-0.6,0.4-0.9,1.3-0.9h7.2c14.7,0,21.9-5.1,21.9-15.3
				c0-5.8-2.2-10.5-6.8-14.3c-4.3-3.6-9.6-5.5-15.9-5.5c-1,0-2.7,0.2-5.1,0.6c-2.5,0.4-4.1,0.6-4.8,0.6c-0.3,5.4-0.5,16.5-0.5,33.5
				s0.2,28.2,0.5,33.6c5.3,0.3,9,0.7,11.3,1.3c0.5,0.2,0.8,0.5,0.8,1c0,0.7-0.4,1.1-1.2,1.1c0.3,0-1.2-0.1-4.9-0.3
				c-3.5-0.2-7.1-0.3-10.5-0.3c-3.1,0-6.4,0.1-9.7,0.3c-3.3,0.2-4.8,0.3-4.5,0.3c-0.8,0-1.2-0.4-1.2-1.1c0-0.5,0.3-0.8,0.9-1
				c2-0.6,5.4-1,10-1.3c0.3-5.2,0.5-16.3,0.5-33.6c0-17.2-0.2-28.3-0.5-33.5c-4.8-0.3-8.1-0.8-10-1.4c-0.6-0.1-0.9-0.4-0.9-0.8
				c0-0.8,0.4-1.2,1.2-1.2c-0.3,0,1.1,0.1,4.5,0.4c3.3,0.2,6.6,0.4,9.7,0.4c1.5,0,4.7-0.2,9.5-0.5c4.8-0.4,8.2-0.5,10-0.5
				c6.9,0,12.5,1.2,17.1,3.6c5.8,3.1,8.7,8,8.7,14.6c0,7.1-3.3,12.6-10.1,16.8c-5.6,3-11.6,4.8-18.3,4.8c1.7,2,5.7,6.8,11.8,14.3
				c3.9,4.7,7.8,9.3,11.7,14c2,2.2,4.2,3.3,6.6,3.3c1.1,0,2.1-0.2,3.1-0.7c1-0.5,1.6-0.7,1.7-0.7
				C246.3,653.9,246.6,654.2,246.6,654.7z"/>
			<path fill="#FFFFFF" d="M270.6,654.9c4.7,0.3,8,0.7,10.1,1.3c0.5,0.2,0.8,0.5,0.8,1c0,0.7-0.4,1.1-1.2,1.1c0.3,0-1.1-0.1-4.5-0.3
				s-6.6-0.3-9.7-0.3c-3.2,0-6.5,0.1-9.7,0.3c-3.3,0.2-4.8,0.3-4.5,0.3c-0.8,0-1.2-0.4-1.2-1.1c0-0.5,0.3-0.8,0.8-1
				c2-0.6,5.4-1,10.1-1.3c0.3-5.1,0.5-16.3,0.5-33.6c0-17.2-0.2-28.3-0.5-33.5c-4.7-0.3-8-0.8-10.1-1.4c-0.5-0.1-0.8-0.4-0.8-0.8
				c0-0.8,0.4-1.2,1.2-1.2c-0.3,0,1.1,0.1,4.5,0.4c3.3,0.2,6.6,0.4,9.7,0.4c3.2,0,6.5-0.1,9.7-0.4c3.3-0.2,4.8-0.4,4.5-0.4
				c0.8,0,1.2,0.4,1.2,1.2c0,0.5-0.3,0.7-0.8,0.8c-2,0.6-5.4,1.1-10.1,1.4c-0.3,5.4-0.5,16.5-0.5,33.5
				C270,638.3,270.2,649.4,270.6,654.9z"/>
			<path fill="#FFFFFF" d="M338,657.1c0,0.7-0.4,1.1-1.2,1.1c0.3,0-1.1-0.1-4.5-0.3s-6.6-0.3-9.7-0.3c-3.2,0-6.5,0.1-9.7,0.3
				c-3.3,0.2-4.8,0.3-4.5,0.3c-0.8,0-1.2-0.4-1.2-1.1c0-0.4,0.3-0.8,0.9-1c2-0.6,5.4-1,10.1-1.3c0.3-5.2,0.5-16.3,0.5-33.4
				c0-17.5-0.2-28.9-0.5-34.3c-1.1-0.1-2.8-0.1-5.1-0.1c-6.6,0-13.4,1.1-20.3,3.4c-0.5,6.9-1.4,10.3-2.5,10.3
				c-0.8,0-1.2-0.4-1.2-1.1c0-0.5,0.1-2.2,0.3-5.2c0.2-2.8,0.4-4.9,0.4-6.1c0-0.9-0.1-2.5-0.4-5c-0.2-2.3-0.3-3.7-0.3-4.2
				c0-0.7,0.4-1,1.2-1c0.5,0,1.2,1.6,2.1,4.8c6.1,1.3,16.1,2,30.2,2c14.1,0,24.1-0.6,30.2-2c0.9-3.1,1.6-4.8,2.1-4.8
				c0.8,0,1.2,0.3,1.2,1c0,0.5-0.1,1.9-0.3,4.2c-0.2,2.3-0.3,4-0.3,5c0,1.2,0.1,3.2,0.3,6.1s0.3,4.6,0.3,5.2c0,0.7-0.4,1.1-1.2,1.1
				c-1.1,0-1.9-3.4-2.5-10.3c-7.1-2.3-13.9-3.4-20.4-3.4c-2.2,0-3.9,0-5.1,0.1c-0.3,5.3-0.5,16.7-0.5,34.3c0,17.1,0.1,28.2,0.5,33.4
				c4.8,0.3,8.1,0.7,10.1,1.3C337.8,656.3,338,656.7,338,657.1z"/>
			<path fill="#FFFFFF" d="M422.4,651.1c0,1.6,0.1,3.8,0.4,6.6c0.2,2.8,0.4,4.3,0.4,4.8c0,0.6-0.4,0.9-1.2,0.9
				c-0.5,0-1.3-1.3-2.3-3.8c-7.6-1.3-18-2-31.3-2c-5.7,0-10.9,0.1-15.8,0.3c-4.9,0.2-6.9,0.3-6,0.3c-0.7,0-1.1-0.2-1.1-0.7
				c0-0.3,0.7-1.7,2.3-4c2.6-3.9,4.3-6.7,5.3-8.2c9.2-13.8,21.8-33.1,38.1-57.9c-0.8,0-2.2,0-4.5,0.1c-2.4,0.1-4.7,0.1-6.6,0.2
				c-12.8,0.1-23.3,1.2-31.2,3.2c-0.7,7.1-1.5,10.5-2.6,10.5c-0.7,0-1-0.7-1-2c0-0.2,0.1-1.9,0.4-5.1c0.3-3.2,0.4-5.5,0.4-7
				c0-0.3-0.1-1.3-0.4-3c-0.3-1.7-0.4-3-0.4-3.9c0-1.3,0.4-2,1.3-2c0.5,0,1.3,1.5,2.3,4.6c8.8,1.3,18.2,2,28.3,2
				c4.1,0,9.1-0.1,14.9-0.4c5.8-0.2,8.5-0.4,8.3-0.4c0.7,0,1,0.2,1,0.6c0,0-2.3,3.4-7.1,10.4c-0.1,0.2-4.7,7.1-13.7,20.8
				c-11.8,17.9-19.7,30.8-23.8,38.7h2.6c16.8,0,30-1.3,39.9-3.9c0-2.9,0.4-5.9,1.3-8.7c0.2-0.6,0.5-1,1-1c0.9,0,1.3,0.5,1.3,1.6
				c0,0.4-0.1,1.7-0.4,3.9C422.5,649.1,422.4,650.5,422.4,651.1z"/>
		</g>
		<g>
			<path fill="#FFFFFF" d="M218.7,721c0-3.6,0-6.3,0.1-7.7c0.9-0.2,1.7-0.3,2.5-0.3c1.2,0,2.3,0.4,3.2,1.1c1,0.8,1.5,1.8,1.5,3.1
				c0,1.3-0.5,2.3-1.6,3c-0.9,0.6-2.1,0.9-3.5,0.9C220.4,721.1,219.7,721.1,218.7,721z M218.7,721.5c1.6,0.1,2.4,0.2,2.3,0.2
				c1.7,0,3.2-0.4,4.5-1.2c1.5-0.9,2.3-2.2,2.3-3.9c0-1.6-0.7-2.7-2.1-3.4c-1-0.5-2.2-0.7-3.6-0.7c-0.4,0-1.1,0-2.2,0.1
				c-1.1,0.1-1.8,0.1-2.1,0.1c-0.7,0-1.4,0-2.1-0.1c-0.7-0.1-1-0.1-1-0.1c-0.2,0-0.3,0.1-0.3,0.3c0,0.1,0.1,0.2,0.2,0.2
				c0.4,0.1,1.2,0.2,2.2,0.3c0.1,1.1,0.1,3.6,0.1,7.5c0,3.8,0,6.4-0.1,7.5c-1,0.1-1.8,0.2-2.2,0.3c-0.1,0-0.2,0.1-0.2,0.2
				c0,0.2,0.1,0.2,0.3,0.2c-0.1,0,0.2,0,1-0.1c0.7,0,1.4-0.1,2.1-0.1c0.8,0,1.7,0,2.6,0.1c0.9,0.1,1.3,0.1,1.2,0.1
				c0.2,0,0.3-0.1,0.3-0.2s-0.1-0.2-0.2-0.2c-0.7-0.1-1.6-0.2-2.9-0.3C218.8,727.2,218.7,724.9,218.7,721.5z"/>
			<path fill="#FFFFFF" d="M244.6,728.3h1.1c2.6,0,5-0.3,7.2-0.9c0.1-1.5,0.3-2.2,0.5-2.2s0.3,0.1,0.3,0.3s0,0.6-0.1,1.1
				c0,0.6-0.1,1.1-0.1,1.5c0,0.3,0,0.7,0.1,1c0,0.3,0.1,0.5,0.1,0.6c0,0.3-0.1,0.4-0.3,0.4c-0.1,0-0.3-0.3-0.5-0.8
				c-1.8-0.3-5-0.4-9.3-0.4c-0.7,0-1.3,0-2,0.1c-0.7,0.1-1,0.1-1.1,0.1c-0.2,0-0.3-0.1-0.3-0.2c0-0.1,0.1-0.2,0.2-0.2
				c0.4-0.1,1.2-0.2,2.2-0.3c0.1-1.1,0.1-3.6,0.1-7.5s0-6.3-0.1-7.5c-1-0.1-1.8-0.2-2.2-0.3c-0.1,0-0.2-0.1-0.2-0.2
				c0-0.2,0.1-0.3,0.3-0.3c-0.1,0,0.3,0,1,0.1c0.7,0.1,1.4,0.1,2.1,0.1c0.7,0,1.4,0,2.1-0.1c0.7-0.1,1-0.1,1-0.1
				c0.2,0,0.3,0.1,0.3,0.3c0,0.1-0.1,0.2-0.2,0.2c-0.4,0.1-1.2,0.2-2.2,0.3c-0.1,1.1-0.1,3.6-0.1,7.5
				C244.5,724.6,244.5,727.2,244.6,728.3z"/>
			<path fill="#FFFFFF" d="M270.6,723.2c0.2-0.5,1.2-2.9,2.9-7.1l3.1,7.1H270.6z M280.9,728.3l-3.8-8.5c-1.6-3.6-2.8-6.5-3.4-8.4
				c-0.8,0.4-1.5,0.7-1.9,0.8c0.3,0.6,0.8,1.7,1.5,3.1c-0.7,1.6-1.2,2.9-1.7,4.1c-1.8,4.5-3.1,7.3-4,8.8c-1,0.1-1.7,0.2-2.1,0.3
				c-0.1,0-0.2,0.1-0.2,0.2c0,0.2,0.1,0.2,0.3,0.2c-0.1,0,0.2,0,0.9-0.1c0.7,0,1.4-0.1,2.1-0.1c0.8,0,1.5,0,2.3,0.1s1.1,0.1,1,0.1
				c0.2,0,0.3-0.1,0.3-0.2c0-0.1-0.1-0.2-0.2-0.2c-0.6-0.1-1.6-0.2-2.9-0.3c0.5-1.6,0.9-3.1,1.4-4.5h6.5c0.6,1.4,1.2,2.9,1.8,4.5
				c-1.2,0.1-2.1,0.2-2.6,0.3c-0.1,0-0.2,0.1-0.2,0.2c0,0.2,0.1,0.2,0.3,0.2c-0.1,0,0.3,0,1.1-0.1c0.8,0,1.6-0.1,2.4-0.1
				c0.7,0,1.4,0,2.2,0.1c0.7,0.1,1.1,0.1,1,0.1c0.2,0,0.3-0.1,0.3-0.2c0-0.1-0.1-0.2-0.2-0.2C282.4,728.4,281.8,728.3,280.9,728.3z"
				/>
			<path fill="#FFFFFF" d="M305.2,728.8c0,0.2-0.1,0.2-0.3,0.2c0.1,0-0.3,0-1-0.1c-0.8,0-1.6-0.1-2.3-0.1c-0.8,0-1.5,0-2.3,0.1
				c-0.8,0.1-1.1,0.1-1,0.1c-0.2,0-0.3-0.1-0.3-0.2c0-0.1,0.1-0.2,0.2-0.2c0.5-0.1,1.3-0.2,2.4-0.3c0.1-1.1,0.1-3.4,0.1-7
				c-1.4-2.2-3.1-4.9-5.2-8c-0.4,0-0.9-0.1-1.6-0.3c-0.1,0-0.2-0.1-0.2-0.2c0-0.2,0.1-0.3,0.3-0.3c-0.1,0,0.2,0,0.9,0.1
				c0.6,0.1,1.3,0.1,1.9,0.1c0.6,0,1.2,0,1.8-0.1c0.6-0.1,0.9-0.1,0.8-0.1c0.2,0,0.3,0.1,0.3,0.3c0,0.1-0.1,0.2-0.2,0.2
				c-0.3,0.1-0.9,0.2-1.8,0.3c0.8,1.3,2.2,3.6,4.5,6.9c0.7-0.9,1.4-2.1,2.2-3.5c0.9-1.5,1.5-2.6,1.8-3.3c-1-0.1-1.7-0.2-2.2-0.3
				c-0.1,0-0.2-0.1-0.2-0.2c0-0.2,0.1-0.3,0.3-0.3c-0.1,0,0.2,0,0.8,0.1c0.6,0.1,1.2,0.1,1.8,0.1c0.5,0,1.1,0,1.7-0.1
				s0.8-0.1,0.8-0.1c0.2,0,0.2,0.1,0.2,0.3c0,0.1-0.1,0.2-0.2,0.2c-0.4,0.1-0.9,0.2-1.7,0.3c-0.3,0.4-1,1.3-1.8,2.6
				c-1.5,2.1-2.5,3.7-3.2,4.9c0,3.8,0,6.4,0.1,7.5c1.1,0.1,1.9,0.2,2.4,0.3C305.1,728.6,305.2,728.7,305.2,728.8z"/>
			<path fill="#FFFFFF" d="M334.3,728.1c0,0.2,0,0.5,0.1,0.9c0.1,0.4,0.1,0.7,0.1,0.9s-0.1,0.2-0.3,0.2c-0.1,0-0.3-0.3-0.5-0.8
				c-1.8-0.3-5-0.4-9.3-0.4c-0.7,0-1.4,0-2.1,0.1c-0.7,0-1,0.1-1,0.1c-0.2,0-0.3-0.1-0.3-0.2c0-0.1,0.1-0.2,0.2-0.2
				c0.4-0.1,1.2-0.2,2.2-0.3c0.1-1.1,0.1-3.6,0.1-7.5s0-6.3-0.1-7.5c-1-0.1-1.8-0.2-2.2-0.3c-0.1,0-0.2-0.1-0.2-0.2
				c0-0.2,0.1-0.3,0.3-0.3c-0.1,0,0.2,0,1,0.1c0.7,0.1,1.4,0.1,2.1,0.1c3.4,0,6.5-0.1,9.1-0.4c0.2-0.7,0.3-1.1,0.5-1.1
				c0.1,0,0.2,0.1,0.2,0.2s0,0.4-0.1,0.9c-0.1,0.6-0.1,1-0.1,1.2s0,0.7,0.1,1.3c0,0.7,0.1,1,0.1,1.1c0,0.2-0.1,0.3-0.3,0.3
				s-0.4-0.8-0.6-2.3c-1.7-0.4-3.8-0.7-6.3-0.7c-0.1,0-0.4,0-0.8,0c-0.4,0-0.7,0-0.9,0c-0.1,1.1-0.2,3.5-0.2,7.1h0.5
				c2.9,0,5.3-0.2,7-0.6c0.1-1.2,0.3-1.8,0.6-1.8c0.1,0,0.2,0.1,0.2,0.3c0,0,0,0.4-0.1,1.1s-0.1,1.1-0.1,1.4c0,0.3,0,0.8,0.1,1.5
				c0.1,0.7,0.1,1,0.1,1c0,0.2-0.1,0.3-0.2,0.3c-0.3,0-0.5-0.7-0.6-2.2c-1.6-0.3-3.9-0.4-7-0.4h-0.5c0,3.7,0.1,6.2,0.2,7.3
				c0.2,0,0.6,0,1,0c2.6,0,5-0.3,7.2-0.9c0.1-1.4,0.3-2.1,0.5-2.1s0.3,0.1,0.3,0.3c0,0.1,0,0.5-0.1,1.2
				C334.3,727.3,334.3,727.8,334.3,728.1z"/>
			<path fill="#FFFFFF" d="M362.4,728.2c0,0.2-0.2,0.5-0.8,0.7c-0.5,0.3-1.1,0.4-1.7,0.4c-0.8,0-1.6-0.4-2.3-1.2
				c-1.2-1.5-2.8-3.6-5-6.4c-0.4-0.4-0.5-0.7-0.5-0.8c0-0.1,0.1-0.2,0.3-0.2h1.6c3.2,0,4.9-1.1,4.9-3.4c0-1.3-0.5-2.3-1.5-3.1
				c-0.9-0.8-2.1-1.2-3.5-1.2c-0.2,0-0.6,0-1.1,0.1c-0.6,0.1-0.9,0.1-1,0.1c-0.1,1.2-0.1,3.6-0.1,7.5c0,3.7,0,6.3,0.1,7.5
				c1.1,0.1,2,0.2,2.5,0.3c0.1,0,0.2,0.1,0.2,0.2c0,0.2-0.1,0.3-0.3,0.3c0.1,0-0.3,0-1-0.1c-0.8,0-1.5-0.1-2.3-0.1
				c-0.7,0-1.4,0-2.1,0.1c-0.7,0-1,0.1-1,0.1c-0.2,0-0.3-0.1-0.3-0.3c0-0.1,0.1-0.2,0.2-0.2c0.4-0.1,1.2-0.2,2.2-0.3
				c0.1-1.1,0.1-3.6,0.1-7.5c0-3.8,0-6.3-0.1-7.5c-1-0.1-1.8-0.2-2.2-0.3c-0.1,0-0.2-0.1-0.2-0.2c0-0.2,0.1-0.3,0.3-0.3
				c-0.1,0,0.2,0,1,0.1c0.7,0,1.4,0.1,2.1,0.1c0.3,0,1,0,2.1-0.1c1.1-0.1,1.8-0.1,2.2-0.1c1.5,0,2.7,0.3,3.7,0.8
				c1.3,0.7,1.9,1.8,1.9,3.2c0,1.6-0.7,2.8-2.2,3.7c-1.2,0.7-2.5,1.1-4,1.1c0.4,0.5,1.2,1.5,2.6,3.1c0.8,1,1.7,2,2.6,3.1
				c0.5,0.5,0.9,0.7,1.4,0.7c0.2,0,0.5-0.1,0.7-0.2c0.2-0.1,0.3-0.2,0.4-0.2C362.4,728.1,362.4,728.1,362.4,728.2z"/>
			<path fill="#FFFFFF" d="M385.7,723.8c0,1.6-0.6,2.9-1.7,3.9c-1.2,1-2.6,1.5-4.5,1.5c-1,0-2.5-0.3-4.4-0.9
				c-0.3,1.1-0.6,1.6-0.7,1.6s-0.2-0.1-0.2-0.2c0-0.1,0-0.2,0.1-0.3c0.1-0.2,0.1-0.5,0.2-0.9c0.1-0.6,0.1-1.4,0.1-2.3
				c0-0.4,0-1-0.1-1.7c-0.1-0.8-0.1-1.1-0.1-1.1c0-0.2,0.1-0.3,0.2-0.3c0.3,0,0.5,1,0.6,3.1c1.6,1.5,3.4,2.2,5.3,2.2
				c1.2,0,2.3-0.3,3.1-1c0.9-0.7,1.3-1.6,1.3-2.6c0-1.2-0.9-2.1-2.6-2.4c-1.5-0.2-3-0.4-4.6-0.7c-2.3-0.6-3.4-1.9-3.4-4
				c0-1.5,0.6-2.7,1.8-3.8c1.1-1,2.5-1.5,3.9-1.5c1.1,0,2.5,0.3,4.2,0.9c0.1-0.3,0.2-0.6,0.3-1c0.1-0.4,0.3-0.5,0.4-0.5
				c0.1,0,0.2,0.1,0.2,0.2c0-0.2-0.1,0.3-0.2,1.3c-0.1,0.9-0.2,1.8-0.2,2.5v1.6c0,0.2-0.1,0.3-0.2,0.3c-0.2,0-0.3-0.3-0.4-1
				c0,0,0-0.6-0.1-1.6c-1.6-1.3-3.2-1.9-4.8-1.9c-1.2,0-2.1,0.3-3,1c-0.9,0.7-1.4,1.6-1.4,2.7c0,1.2,0.9,2.1,2.6,2.5
				c1.6,0.3,3.2,0.5,4.9,0.8C384.6,720.7,385.7,721.9,385.7,723.8z"/>
			<polygon fill="#FFFFFF" points="205,721.7 204.8,721.7 195.3,719 185.8,721.7 185.8,721.7 185.8,721.7 185.8,721.7 185.7,721.8 
				185.7,721.8 185.9,721.8 195.4,724.5 204.8,721.8 204.9,721.8 204.9,721.8 204.9,721.8 			"/>
			<polygon fill="#FFFFFF" points="417.3,721.7 417.1,721.7 407.6,719 398.2,721.7 398.1,721.7 398.1,721.7 398.1,721.7 398,721.8 
				398,721.8 398.2,721.8 407.7,724.5 417.2,721.8 417.3,721.8 417.3,721.8 417.2,721.8 			"/>
		</g>
	</g>
</g>
</svg>
